<svg xmlns="http://www.w3.org/2000/svg" xmlns:xlink="http://www.w3.org/1999/xlink" width="263.5" height="75" viewBox="0 0 263.5 75">
  <defs>
    <linearGradient id="linear-gradient" x1="0.201" y1="0.103" x2="0.759" y2="0.863" gradientUnits="objectBoundingBox">
      <stop offset="0" stop-color="#fbab4a"/>
      <stop offset="1" stop-color="#fb7356"/>
    </linearGradient>
    <clipPath id="clip-path">
      <path id="Trazado_140" data-name="Trazado 140" d="M329.633,392.474a4.472,4.472,0,0,0-1.964-1.572c-.814-.22-1.666.163-2.474-.1-1.035-.339-1.768-1.643-2.637-2.533a5.18,5.18,0,0,0-6.395-.749c-2.089,1.115-3.863,3.2-5.547,5.326a3.821,3.821,0,0,0-.854,1.566c-.141.645.068,1.808.827,1.6a2.068,2.068,0,0,0,.73-.213,2.477,2.477,0,0,1,1.749-.03,16.213,16.213,0,0,1,2.509,1.73,3.663,3.663,0,0,0,3.014.446c.879-.261,1.7-.855,2.57-1.152a2.145,2.145,0,0,1,2.546.644,4.007,4.007,0,0,0,.552.72.407.407,0,0,0,.665-.139c.127-.294.022-.689.089-1.022.125-.62.573-.751.872-.276s.034,1.937.566,1.937c.692,0,.318-1.887.506-2.255s.7-.28.714.6a9.347,9.347,0,0,0,.121,1.374c.076.449.377.892.673.731a.748.748,0,0,0,.269-.352c.423-.924.324-2.269.866-3.048.237-.341.58-.537.739-.965A2.467,2.467,0,0,0,329.633,392.474Z" transform="translate(-309.72 -386.759)" fill="none"/>
    </clipPath>
    <clipPath id="clip-path-2">
      <path id="Trazado_93" data-name="Trazado 93" d="M41.452,299.046a3.243,3.243,0,0,0-1.858,1.083,2.557,2.557,0,0,0-.584,1.919c.077.985.542,1.084.889.986a2.19,2.19,0,0,1,2.109.264c.969.762,1.872,2.742,2.866,2.346.592-.236,1.148-1.315,1.739-1.077.354.142.674.749,1.031.826.287.061.567-.226.843-.458a2.515,2.515,0,0,1,3.149-.316c.819.51,1.687,1.475,2.463.554.29-.345.759-.57.922.207.235,1.12-.138,3.3.39,3.3s.012-3.375.556-3.375-.128,7.293.65,7.033c.629-.21-.162-7.011.521-7.011s-.006,3.375.493,3.375.006-4.353.717-4.414a1.513,1.513,0,0,0,1.471-1.856,1.163,1.163,0,0,0-.241-.584c-.638-.84-1.373-1.067-1.952-2.211-.3-.588-.54-1.393-.843-1.957-.787-1.462-1.82-1.035-2.715-.256s-1.8,1.87-2.731,1.569c-.537-.174-1.044-.807-1.578-1.045-1.607-.716-3.17,2.2-4.8,2.046-.739-.069-1.452-.77-2.183-1.113a3.262,3.262,0,0,0-3.186,1.244" transform="translate(-39 -296.714)" fill="none"/>
    </clipPath>
    <clipPath id="clip-path-3">
      <path id="Trazado_140-2" data-name="Trazado 140" d="M24.9,6.2A5.632,5.632,0,0,1,22.44,7.664c-1.017.2-1.587-.4-2.6-.152-1.294.315-.9,2.886-1.983,3.714-1.167.889-2.814,2.306-5.007,2.056-1.491-.165-3.524-1.964-4.8-2.47A23.045,23.045,0,0,1,1.119,5.855,3.43,3.43,0,0,1,.051,4.4c-.176-.6.085-1.683,1.033-1.488a3.285,3.285,0,0,1,.913.2,4.1,4.1,0,0,0,2.186.028A21.572,21.572,0,0,0,7.32,1.525a5.946,5.946,0,0,1,3.768-.415c1.1.243,2.121.8,3.213,1.072a3.309,3.309,0,0,0,3.184-.6,4.108,4.108,0,0,1,.69-.67.6.6,0,0,1,.831.129c.158.274.027.641.111.951a.6.6,0,0,0,1.09.257c.374-.442.043-1.8.708-1.8.866,0,.4,1.757.633,2.1s.87.261.893-.556A6.547,6.547,0,0,1,22.592.712c.1-.418.471-.831.841-.68a.768.768,0,0,1,.336.328c.529.86.4,2.112,1.082,2.837.3.317.725.5.923.9C26.143,4.833,25.5,5.674,24.9,6.2Z" transform="translate(0 0)" fill="none"/>
    </clipPath>
    <clipPath id="clip-path-4">
      <path id="Trazado_110" data-name="Trazado 110" d="M401.94,308.008a68.018,68.018,0,0,1,17.989,1.324,6.332,6.332,0,0,1,2.766,1.08,2.124,2.124,0,0,1,.7,2.592,2.744,2.744,0,0,1-1.637,1.082c-2.275.691-4.738.292-7.114.5s-5.019,1.416-5.455,3.673c-.174.9.039,1.846-.155,2.744s-1.091,1.8-1.991,1.492c-1.316-.444-.819-2.536-1.843-3.445-.861-.764-2.366-.207-2.956.766a6.739,6.739,0,0,0-.6,3.293c-.081,1.971,1.233,5.244.194,6.944-1.355,2.216-2.981-.131-3.659-1.043-.88-1.186-1.9-.783-2.032.912a17.093,17.093,0,0,1-1.355,5.867,3.759,3.759,0,0,1-2.439,2.216c-1.664.269-2.822-2.126-3.271-3.691-1.676-5.855-1.916-12.348.865-17.8s9.1-9.471,15.323-8.44" transform="translate(-387.826 -307.887)" fill="none"/>
    </clipPath>
    <clipPath id="clip-path-5">
      <path id="Trazado_354" data-name="Trazado 354" d="M58.4-26.7a28.124,28.124,0,0,1-3.65,14.45,26.2,26.2,0,0,1-9.8,9.75A27.3,27.3,0,0,1,31.2,1,27.3,27.3,0,0,1,17.45-2.5a26.2,26.2,0,0,1-9.8-9.75A28.124,28.124,0,0,1,4-26.7,28.124,28.124,0,0,1,7.65-41.15a26.578,26.578,0,0,1,9.8-9.8A27,27,0,0,1,31.2-54.5a27,27,0,0,1,13.75,3.55,26.578,26.578,0,0,1,9.8,9.8A28.124,28.124,0,0,1,58.4-26.7Z" transform="translate(489.723 480.204)" fill="url(#linear-gradient)"/>
    </clipPath>
    <clipPath id="clip-path-6">
      <path id="Trazado_88" data-name="Trazado 88" d="M359.036,216.6c-1.288.567-1.754,1.41-1.089,2.042a1.29,1.29,0,0,0,.753.283c.923.111,1.859-.038,2.785.036a2.831,2.831,0,0,1,2.351,1.266c.238.45.323,1.041.77,1.286,1.024.56,1.794-1.394,2.959-1.468.552-.035,1.023.37,1.542.562,1.845.683,3.035-1.278,4.593-.512.537.264,1.254,1.255,1.852,1.255.657,0,.97-.859,1.395-.986.8-.239,1.381.765,1.575,1.579s.137,2.1,1.033,2.1.712-2.926,1.894-3.354c.605-.219,1.279-.2,1.882-.422s1.146-.884.9-1.477c-.228-.54-.919-.658-1.474-.845-1.666-.561-2.64-2.227-3.7-3.627s-2.726-2.743-4.409-2.235c-1.3.394-2.124,1.79-3.438,2.153-1.874.518-3.757-1.283-5.669-.929a5.227,5.227,0,0,0-1.639.719C362.2,215.009,360.324,216.034,359.036,216.6Z" transform="translate(-357.646 -211.967)" fill="none"/>
    </clipPath>
  </defs>
  <g id="Grupo_1315" data-name="Grupo 1315" transform="translate(-279 -491)">
    <g id="Grupo_1310" data-name="Grupo 1310" transform="translate(223.5 213)">
      <path id="Trazado_351" data-name="Trazado 351" d="M63.6-70a5.1,5.1,0,0,1,3.9,1.6,5.621,5.621,0,0,1,1.5,4V-6.1a5.905,5.905,0,0,1-1.75,4.35A5.905,5.905,0,0,1,62.9,0a8.349,8.349,0,0,1-2.65-.45A4.577,4.577,0,0,1,58.2-1.7L18.9-51.6l2.6-1.6V-5.6a5.52,5.52,0,0,1-1.55,4A5.385,5.385,0,0,1,15.9,0,5.1,5.1,0,0,1,12-1.6a5.621,5.621,0,0,1-1.5-4V-63.9a5.905,5.905,0,0,1,1.75-4.35A5.905,5.905,0,0,1,16.6-70a8.4,8.4,0,0,1,2.9.55,4.213,4.213,0,0,1,2.2,1.65L59.8-19.2,58.1-18V-64.4a5.621,5.621,0,0,1,1.5-4A5.223,5.223,0,0,1,63.6-70ZM96.2,1A29.372,29.372,0,0,1,81.45-2.55a24.515,24.515,0,0,1-9.6-9.65A28.19,28.19,0,0,1,68.5-26a30.326,30.326,0,0,1,3.65-15.35A25.815,25.815,0,0,1,81.7-51.1a24.65,24.65,0,0,1,12.5-3.4,22.755,22.755,0,0,1,9.65,2.1,26.379,26.379,0,0,1,8.05,5.75,27.952,27.952,0,0,1,5.55,8.45A25.7,25.7,0,0,1,119.5-28a5.135,5.135,0,0,1-1.9,3.9,6.362,6.362,0,0,1-4.2,1.5H75.2l-3-10h36.7l-2.2,2v-2.7a9.12,9.12,0,0,0-2.05-5.2,13.387,13.387,0,0,0-4.6-3.65A13.1,13.1,0,0,0,94.2-43.5a18.95,18.95,0,0,0-5.6.8A10.728,10.728,0,0,0,84.1-40a13.1,13.1,0,0,0-3,5.1A25.279,25.279,0,0,0,80-26.8a17.483,17.483,0,0,0,2.25,9.15,15.332,15.332,0,0,0,5.8,5.7A15.447,15.447,0,0,0,95.6-10a23.242,23.242,0,0,0,5.9-.6,13.261,13.261,0,0,0,3.55-1.45q1.35-.85,2.45-1.45a7.629,7.629,0,0,1,3.4-.9,4.864,4.864,0,0,1,3.65,1.5A4.878,4.878,0,0,1,116-9.4q0,2.7-2.8,4.9a23.2,23.2,0,0,1-7.3,3.85A29.075,29.075,0,0,1,96.2,1Zm50.5-55.5a22.79,22.79,0,0,1,12.55,3.55,25.193,25.193,0,0,1,8.8,9.75,30.578,30.578,0,0,1,3.25,14.4,30.881,30.881,0,0,1-3.25,14.45,25.4,25.4,0,0,1-8.7,9.8A21.956,21.956,0,0,1,147.1,1a21.367,21.367,0,0,1-7.5-1.3,24.015,24.015,0,0,1-6.15-3.3,18.91,18.91,0,0,1-4.1-4.05,6.441,6.441,0,0,1-1.45-3.45l3.1-1.3v7.3a6,6,0,0,1-1.7,4.35A5.741,5.741,0,0,1,125,1a5.828,5.828,0,0,1-4.3-1.7A5.954,5.954,0,0,1,119-5.1V-67.9a6,6,0,0,1,1.7-4.35A5.741,5.741,0,0,1,125-74a5.741,5.741,0,0,1,4.3,1.75A6,6,0,0,1,131-67.9v25.4l-1.7-.9a5.629,5.629,0,0,1,1.4-3.15,20.158,20.158,0,0,1,3.8-3.7,21.642,21.642,0,0,1,5.55-3.05A18.52,18.52,0,0,1,146.7-54.5Zm-1.5,11a13.555,13.555,0,0,0-7.7,2.2,14.93,14.93,0,0,0-5.15,5.95,19.076,19.076,0,0,0-1.85,8.55,19.484,19.484,0,0,0,1.85,8.55,14.787,14.787,0,0,0,5.15,6.05,13.555,13.555,0,0,0,7.7,2.2,13.318,13.318,0,0,0,7.65-2.2,14.93,14.93,0,0,0,5.1-6.05,19.484,19.484,0,0,0,1.85-8.55,19.076,19.076,0,0,0-1.85-8.55,15.077,15.077,0,0,0-5.1-5.95A13.318,13.318,0,0,0,145.2-43.5Zm24.1,16.8ZM268-54.5a5.828,5.828,0,0,1,4.3,1.7,5.954,5.954,0,0,1,1.7,4.4V-6.1a6,6,0,0,1-1.7,4.35A5.741,5.741,0,0,1,268,0a5.741,5.741,0,0,1-4.3-1.75A6,6,0,0,1,262-6.1V-11l2.2.9a5.629,5.629,0,0,1-1.4,3.15A19.057,19.057,0,0,1,259-3.3a23.3,23.3,0,0,1-5.65,3.05A19.475,19.475,0,0,1,246.3,1a22.862,22.862,0,0,1-12.5-3.55,24.971,24.971,0,0,1-8.85-9.8A30.656,30.656,0,0,1,221.7-26.7a30.881,30.881,0,0,1,3.25-14.45,25.249,25.249,0,0,1,8.75-9.8,22.028,22.028,0,0,1,12.2-3.55,23.106,23.106,0,0,1,7.9,1.3,23.608,23.608,0,0,1,6.25,3.3,18.909,18.909,0,0,1,4.1,4.05,6.441,6.441,0,0,1,1.45,3.45L262-41.1v-7.3a6,6,0,0,1,1.7-4.35A5.741,5.741,0,0,1,268-54.5ZM247.8-10a13.555,13.555,0,0,0,7.7-2.2,14.856,14.856,0,0,0,5.15-6,19.162,19.162,0,0,0,1.85-8.5,19.4,19.4,0,0,0-1.85-8.6,14.856,14.856,0,0,0-5.15-6,13.555,13.555,0,0,0-7.7-2.2,13.382,13.382,0,0,0-7.6,2.2,14.856,14.856,0,0,0-5.15,6,19.4,19.4,0,0,0-1.85,8.6,19.162,19.162,0,0,0,1.85,8.5,14.856,14.856,0,0,0,5.15,6A13.382,13.382,0,0,0,247.8-10Z" transform="translate(45 352)" fill="#fff"/>
      <g id="Grupo_42" data-name="Grupo 42" transform="matrix(0.875, -0.485, 0.485, 0.875, -288.132, 109.867)">
        <g id="Grupo_40" data-name="Grupo 40" transform="translate(309.72 388.222)">
          <g id="Grupo_39" data-name="Grupo 39" clip-path="url(#clip-path)">
            <path id="Trazado_137" data-name="Trazado 137" d="M329.633,392.474a4.472,4.472,0,0,0-1.964-1.572c-.814-.22-1.666.163-2.474-.1-1.035-.339-1.768-1.643-2.637-2.533a5.18,5.18,0,0,0-6.395-.749c-2.089,1.115-3.863,3.2-5.547,5.326a3.821,3.821,0,0,0-.854,1.566c-.141.645.068,1.808.827,1.6a2.068,2.068,0,0,0,.73-.213,2.477,2.477,0,0,1,1.749-.03,16.213,16.213,0,0,1,2.509,1.73,3.663,3.663,0,0,0,3.014.446c.879-.261,1.7-.855,2.57-1.152a2.145,2.145,0,0,1,2.546.644,4.007,4.007,0,0,0,.552.72.407.407,0,0,0,.665-.139c.127-.294.022-.689.089-1.022.125-.62.573-.751.872-.276s.034,1.937.566,1.937c.692,0,.318-1.887.506-2.255s.7-.28.714.6a9.347,9.347,0,0,0,.121,1.374c.076.449.377.892.673.731a.748.748,0,0,0,.269-.352c.423-.924.324-2.269.866-3.048.237-.341.58-.537.739-.965A2.467,2.467,0,0,0,329.633,392.474Z" transform="translate(-309.72 -386.759)" fill="#fff"/>
            <path id="Trazado_138" data-name="Trazado 138" d="M325.707,397.924c-.661-.165-.881,1.082-.273,1.451,1.076.653,2.842,2.117,1.734,3.938-.351.577-.986.474-1.173,1.6-.09.539.2,2.012-.251,2.041s-.344-.885-.333-1.118c.019-.621-.266-1.174-.606-1.159-.867.037-.561,1.7-.646,2.057-.12.51-.544.374-.493-.4.056-.844-.424-1.543-1.1-1.05-.365.267-.362.941-.822.689-.407-.223-.712-.839-1.128-1.1a2.591,2.591,0,0,0-2.463-.032c-.929.4-1.807,1.175-2.792,1.258a4.754,4.754,0,0,1-3.035-1.143,6.267,6.267,0,0,0-2.454-1.426,3.491,3.491,0,0,0-1.267.184c-.756.168-1.31-.653-.97-1.8.067-.227-.093-.6-.271-.4a2.784,2.784,0,0,0-.253,3.1c.867,1.39,1.982.287,3.031.72,1.193.493,2.205,1.7,3.417,2.19a3.885,3.885,0,0,0,3.419-.18c1-.529,2.313-1.642,3.363-.736.477.412.808,1.024,1.378,1.183a1.016,1.016,0,0,0,1.018-.291c.021.071.04.133.053.173a1.618,1.618,0,0,0,1.007,1.161,1,1,0,0,0,1.107-.574l.008-.017a1.359,1.359,0,0,0,.419.382.83.83,0,0,0,.361.11.425.425,0,0,0,.612-.137,2.339,2.339,0,0,0,.163-.234,1.733,1.733,0,0,0,.376-.963,1.483,1.483,0,0,0,0-.275c.082-.411.144-.839.25-1.276a6.018,6.018,0,0,1,.809-1.552,4.155,4.155,0,0,0,.449-1.5C328.632,400.385,327.249,398.31,325.707,397.924Z" transform="translate(-307.163 -395.673)" fill="#336ec2" opacity="0.3"/>
            <g id="Grupo_38" data-name="Grupo 38" transform="translate(-1.319 -2.181)" opacity="0.15">
              <path id="Trazado_139" data-name="Trazado 139" d="M301.115,381.205c-1.05.48-1.125,2.629-.984,3.97a5.186,5.186,0,0,0,2.21,4.035c1.246.717,2.568.239,3.822.734,1.367.541,2.486,1.654,3.958,1.635,1.439-.018,2.574-1.06,3.931-1.512,1.168-.389,2.261.73,3.373,1.093,2.909.951,6.486-1.256,7.142-5.874a9.7,9.7,0,0,0-1.428-6.753c-1.188-1.793-3.474-3.849-5-1.784a3.3,3.3,0,0,0-.25,2.844c.461,1.4,1.812,1.659,2.479,2.576A2.776,2.776,0,0,1,321,383.4c-.082-.326.03.432,0,.087a2,2,0,0,1-.039.661,2.813,2.813,0,0,1-1.3,1.812,2.742,2.742,0,0,1-2.586-.021,5.461,5.461,0,0,0-3.234-.614,18.089,18.089,0,0,0-2.987,1.408c-.961.4-1.789-.035-2.691-.53a5.943,5.943,0,0,0-3.082-.8c-.9.022-1.8.192-2.469-.779a3.614,3.614,0,0,1-.613-1.292,11.231,11.231,0,0,0-.31-1.787c-.113-.276-.36-.443-.576-.344Z" transform="translate(-300.078 -375.885)" fill="#336ec2"/>
            </g>
          </g>
        </g>
        <g id="Grupo_41" data-name="Grupo 41" transform="translate(305.698 388.231)">
          <path id="Trazado_141" data-name="Trazado 141" d="M372.4,394.155l-.248.248" transform="translate(-361.938 -394.155)" fill="none" stroke="#336ec2" stroke-miterlimit="10" stroke-width="0.994" opacity="0.35"/>
          <path id="Trazado_142" data-name="Trazado 142" d="M357.988,401.362v-.248" transform="translate(-351.235 -398.963)" fill="none" stroke="#336ec2" stroke-miterlimit="10" stroke-width="0.994" opacity="0.35"/>
          <path id="Trazado_143" data-name="Trazado 143" d="M383.588,400.12v-.249" transform="translate(-370.454 -398.104)" fill="none" stroke="#336ec2" stroke-miterlimit="10" stroke-width="0.994" opacity="0.35"/>
          <path id="Trazado_144" data-name="Trazado 144" d="M439.511,411.3" transform="translate(-417.476 -405.876)" fill="none" stroke="#336ec2" stroke-miterlimit="10" stroke-width="0.994" opacity="0.15"/>
          <path id="Trazado_145" data-name="Trazado 145" d="M433.3,414.038" transform="translate(-415.348 -409.954)" fill="none" stroke="#336ec2" stroke-miterlimit="10" stroke-width="0.994" opacity="0.35"/>
          <path id="Trazado_146" data-name="Trazado 146" d="M446.222,414.535" transform="translate(-417.476 -409.954)" fill="none" stroke="#336ec2" stroke-miterlimit="10" stroke-width="0.994" opacity="0.15"/>
          <path id="Trazado_147" data-name="Trazado 147" d="M372.9,417.27" transform="translate(-362.43 -409.954)" fill="none" stroke="#336ec2" stroke-miterlimit="10" stroke-width="0.994" opacity="0.15"/>
          <path id="Trazado_148" data-name="Trazado 148" d="M330.9,413.541" transform="translate(-330.896 -409.954)" fill="none" stroke="#336ec2" stroke-miterlimit="10" stroke-width="0.994" opacity="0.15"/>
          <path id="Trazado_149" data-name="Trazado 149" d="M336.115,415.778" transform="translate(-330.896 -409.954)" fill="none" stroke="#336ec2" stroke-miterlimit="10" stroke-width="0.994" opacity="0.35"/>
        </g>
      </g>
      <g id="Grupo_27" data-name="Grupo 27" transform="translate(383.712 15.554) rotate(16)">
        <g id="Grupo_25" data-name="Grupo 25" transform="translate(-14.169 291.843)">
          <g id="Grupo_24" data-name="Grupo 24" clip-path="url(#clip-path-2)">
            <path id="Trazado_89" data-name="Trazado 89" d="M41.452,299.046a3.243,3.243,0,0,0-1.858,1.083,2.557,2.557,0,0,0-.584,1.919c.077.985.542,1.084.889.986a2.19,2.19,0,0,1,2.109.264c.969.762,1.872,2.742,2.866,2.346.592-.236,1.148-1.315,1.739-1.077.354.142.674.749,1.031.826.287.061.567-.226.843-.458a2.515,2.515,0,0,1,3.149-.316c.819.51,1.687,1.475,2.463.554.29-.345.759-.57.922.207.235,1.12-.138,3.3.39,3.3s.012-3.375.556-3.375-.128,7.293.65,7.033c.629-.21-.162-7.011.521-7.011s-.006,3.375.493,3.375.006-4.353.717-4.414a1.513,1.513,0,0,0,1.471-1.856,1.163,1.163,0,0,0-.241-.584c-.638-.84-1.373-1.067-1.952-2.211-.3-.588-.54-1.393-.843-1.957-.787-1.462-1.82-1.035-2.715-.256s-1.8,1.87-2.731,1.569c-.537-.174-1.044-.807-1.578-1.045-1.607-.716-3.17,2.2-4.8,2.046-.739-.069-1.452-.77-2.183-1.113a3.262,3.262,0,0,0-3.186,1.244" transform="translate(-39 -296.714)" fill="#fff"/>
            <path id="Trazado_90" data-name="Trazado 90" d="M39.545,304.36a2.639,2.639,0,0,0,.547,2.465c.428.291.871-.137,1.311-.194,1.225-.159,2.306,2.537,3.531,2.7.67.091,1.259-1.354,1.929-1.372.369-.01.8.948,1.172.912.7-.068,1.37-.956,2.071-1.157,1.44-.413,2.871,2.09,4.291,1.277.233-.133.733-.7.937-.351a8.6,8.6,0,0,1,.125,2.22c.11,1.772.452,1.545.648,1.09a6.8,6.8,0,0,0,.08-1.519c.018-.452-.08-1.531.205-1.619.365.088-.054,5.385.421,6.838.159.486.36.426.5-.1a9.365,9.365,0,0,0,.1-1.363c-.006-2.009-.28-5.42.125-5.452a4.275,4.275,0,0,1,.207,2.037c-.033.759.012,1.781.272,1.915s.422-.76.428-1.5a18.7,18.7,0,0,1,.077-2.616c.318-1.627,1.405-.292,1.658-2.012a2.4,2.4,0,0,0-.291-1.688,4.337,4.337,0,0,0-.844-1.1,6.118,6.118,0,0,1-1.348-2.727" transform="translate(-39.426 -300.222)" fill="none" stroke="#336ec2" stroke-miterlimit="10" stroke-width="0.509" opacity="0.3"/>
            <path id="Trazado_91" data-name="Trazado 91" d="M56.533,305.1c-.3-2.27-.973-2.666-1.7-2.36-.041.017-.078-.062-.085-.179-.032-.493-.1-.983-.172-1.438-.374-2.227-1.129-3.869-1.953-4.444-.321-.224-.663.294-.752,1.237a3.146,3.146,0,0,0,.427,2.178,3.94,3.94,0,0,1,.918,2.05c-.067.714-1.031.714-1.5.584-.99-.273-1.7-.389-2.353.195-.393.353-1.339,1.114-2.017.714-1.21-.714-2.553-1.664-3.092-1.553a5.37,5.37,0,0,0-1.6.879,1.322,1.322,0,0,1-1.419,0,1.621,1.621,0,0,0-1.631.285,1.03,1.03,0,0,1-1.53-.177c-.5-.531-.977-1.256-1.51-1.491-.6-.264-1.182.15-1.78.06a.728.728,0,0,1-.594-.545,2.512,2.512,0,0,1-.139-.938c.259-1.695-.492-3.025-.865-1.465a10.232,10.232,0,0,0,.021,4.216c.339,1.443.891,2.057,1.472,2.2s1.159-.4,1.726-.074,1.062,1.2,1.607,1.671a1.366,1.366,0,0,0,1.8.008,2.1,2.1,0,0,1,.782-.39c.32-.032.628.22.943.341.633.242,1.246-.156,1.86-.583a2.307,2.307,0,0,1,1.189-.461c.006.034.011.068.018.1.179.888.525,1.007.824.626a.723.723,0,0,1,.715-.275l.01,0c.132.061.263.121.4.179a.123.123,0,0,1,.047.079,1.433,1.433,0,0,0,.151.364.442.442,0,0,0,.2.223,3.979,3.979,0,0,1,1.659,1.756.318.318,0,0,1,.032.114,3.552,3.552,0,0,0,.158.711.543.543,0,0,1,0,.318,5.04,5.04,0,0,0-.116,2.35c.2.977.569,1.081.9.681a7.392,7.392,0,0,1,.538-.592c.026-.026.055-.007.075.048a5.376,5.376,0,0,0,.486,1.018c1.159,1.8,2.52-.265,3.6-1.651a21.039,21.039,0,0,0,1.663-2.415A6.834,6.834,0,0,0,56.533,305.1Zm-1.176.762s0,0-.007,0C55.361,305.523,55.4,305.877,55.356,305.86Zm-1.215,1.734,0,0,.015-.385a3.688,3.688,0,0,1,.854-.781c-.111.176-.223.35-.336.519-.151.228-.3.448-.457.664C54.191,307.642,54.164,307.634,54.141,307.594Zm1.2-1.042c-.017.036-.019-.077-.015-.207C55.38,306.337,55.435,306.362,55.342,306.551Z" transform="translate(-33.37 -296.642)" fill="#336ec2" opacity="0.15"/>
            <path id="Trazado_92" data-name="Trazado 92" d="M328.987,322.082" transform="translate(-309.841 -317.231)" fill="none" stroke="#336ec2" stroke-miterlimit="10" stroke-width="1.018" opacity="0.15"/>
          </g>
        </g>
        <g id="Grupo_26" data-name="Grupo 26" transform="translate(-13.326 293.329)">
          <path id="Trazado_94" data-name="Trazado 94" d="M90.024,311.56" transform="translate(-84.763 -305.997)" fill="none" stroke="#336ec2" stroke-miterlimit="10" stroke-width="1.018" opacity="0.35"/>
          <path id="Trazado_95" data-name="Trazado 95" d="M80.859,314.614" transform="translate(-80.859 -307.325)" fill="none" stroke="#336ec2" stroke-miterlimit="10" stroke-width="1.018" opacity="0.35"/>
          <path id="Trazado_96" data-name="Trazado 96" d="M97.152,315.633" transform="translate(-90.902 -307.768)" fill="none" stroke="#336ec2" stroke-miterlimit="10" stroke-width="1.018" opacity="0.35"/>
          <path id="Trazado_97" data-name="Trazado 97" d="M159.608,324.119h.34" transform="translate(-152.934 -311.458)" fill="none" stroke="#336ec2" stroke-miterlimit="10" stroke-width="1.018" opacity="0.15"/>
          <path id="Trazado_98" data-name="Trazado 98" d="M178.617,323.44" transform="translate(-170.196 -311.458)" fill="none" stroke="#336ec2" stroke-miterlimit="10" stroke-width="1.018" opacity="0.35"/>
          <path id="Trazado_99" data-name="Trazado 99" d="M194.909,306.468" transform="translate(-185.084 -303.782)" fill="none" stroke="#336ec2" stroke-miterlimit="10" stroke-width="1.018" opacity="0.35"/>
          <path id="Trazado_100" data-name="Trazado 100" d="M184.047,311.22" transform="translate(-175.158 -305.849)" fill="none" stroke="#336ec2" stroke-miterlimit="10" stroke-width="1.018" opacity="0.15"/>
          <path id="Trazado_101" data-name="Trazado 101" d="M204.414,313.257" transform="translate(-193.77 -306.735)" fill="none" stroke="#336ec2" stroke-miterlimit="10" stroke-width="1.018" opacity="0.15"/>
          <path id="Trazado_102" data-name="Trazado 102" d="M288.933,304.771v.339" transform="translate(-275.249 -301.716)" fill="none" stroke="#336ec2" stroke-miterlimit="10" stroke-width="1.018" opacity="0.35"/>
          <path id="Trazado_103" data-name="Trazado 103" d="M295.383,301.716h.339" transform="translate(-280.824 -301.716)" fill="none" stroke="#336ec2" stroke-miterlimit="10" stroke-width="1.018" opacity="0.15"/>
          <path id="Trazado_104" data-name="Trazado 104" d="M303.19,306.468" transform="translate(-284.038 -303.782)" fill="none" stroke="#336ec2" stroke-miterlimit="10" stroke-width="1.018" opacity="0.35"/>
          <path id="Trazado_105" data-name="Trazado 105" d="M251.6,321.064" transform="translate(-236.887 -311.458)" fill="none" stroke="#336ec2" stroke-miterlimit="10" stroke-width="1.018" opacity="0.35"/>
          <path id="Trazado_106" data-name="Trazado 106" d="M255.669,314.275h.339" transform="translate(-240.854 -307.177)" fill="none" stroke="#336ec2" stroke-miterlimit="10" stroke-width="1.018" opacity="0.15"/>
        </g>
      </g>
      <g id="Grupo_1317" data-name="Grupo 1317" transform="translate(86.785 318.223) rotate(-131)">
        <g id="Grupo_40-2" data-name="Grupo 40" transform="translate(-21.496 0)">
          <g id="Grupo_39-2" data-name="Grupo 39" clip-path="url(#clip-path-3)">
            <path id="Trazado_137-2" data-name="Trazado 137" d="M24.9,5.855A5.708,5.708,0,0,1,22.44,7.237c-1.017.193-2.083-.144-3.093.089-.589.135-.483,2.068-1.465,3.515-.79,1.161-3.163,1.49-3.756,1.917-2.279,1.64-3.46-1.568-6.072-2.547A23.071,23.071,0,0,1,1.119,5.529,3.257,3.257,0,0,1,.051,4.152c-.176-.567.085-1.589,1.033-1.405A3.451,3.451,0,0,1,2,2.934a4.333,4.333,0,0,0,2.186.026A22.073,22.073,0,0,0,7.32,1.44a6.267,6.267,0,0,1,3.768-.392c1.1.229,2.121.751,3.213,1.013a3.462,3.462,0,0,0,3.184-.566,4.012,4.012,0,0,1,.69-.633.624.624,0,0,1,.831.122c.158.258.027.605.111.9a.606.606,0,0,0,1.09.243c.374-.417.043-1.7.708-1.7.866,0,.4,1.659.633,1.982s.87.246.893-.525A5.855,5.855,0,0,1,22.592.672c.1-.395.471-.784.841-.642a.75.75,0,0,1,.336.31c.529.812.4,1.995,1.082,2.679.3.3.725.472.923.848C26.143,4.564,25.5,5.358,24.9,5.855Z" transform="translate(0 0)" fill="#fff"/>
            <path id="Trazado_138-2" data-name="Trazado 138" d="M23.692,9.607a.662.662,0,0,1-.341-1.276C24.7,7.758,26.9,6.471,25.519,4.87c-.439-.507-1.233-.416-1.467-1.4-.112-.474.245-1.769-.313-1.794s-.43.778-.417.983c.023.546-.333,1.032-.758,1.019-1.084-.033-.7-1.49-.808-1.808-.15-.449-.68-.329-.617.351a.892.892,0,0,1-1.373.923c-.456-.235-.452-.827-1.027-.606-.508.2-.89.737-1.41.964a4.466,4.466,0,0,1-3.079.028,15.6,15.6,0,0,0-3.49-1.106,7.579,7.579,0,0,0-3.795,1A9.05,9.05,0,0,1,3.9,4.681a6.086,6.086,0,0,1-1.584-.162A1.077,1.077,0,0,0,1.1,6.1c.084.2-.116.524-.338.349A1.886,1.886,0,0,1,.445,3.733C1.529,2.511,2.923,3.481,4.234,3.1c1.491-.434,2.757-1.493,4.273-1.925a6.718,6.718,0,0,1,4.275.158c1.254.465,2.892,1.443,4.2.647.6-.362,1.01-.9,1.724-1.04a1.648,1.648,0,0,1,1.273.255c.026-.062.05-.117.067-.152A1.738,1.738,0,0,1,21.309.022a1.445,1.445,0,0,1,1.384.5l.01.015a1.631,1.631,0,0,1,.523-.336,1.374,1.374,0,0,1,.451-.1.676.676,0,0,1,.766.12,2.215,2.215,0,0,1,.2.206,1.318,1.318,0,0,1,.471.846.918.918,0,0,1,0,.242c.1.361.181.738.312,1.121a5.017,5.017,0,0,0,1.012,1.364A2.917,2.917,0,0,1,27,5.329,3.919,3.919,0,0,1,23.692,9.607Z" transform="translate(-0.507 -0.708)" fill="#336ec2" opacity="0.3"/>
            <g id="Grupo_38-2" data-name="Grupo 38" transform="translate(-1.65 -0.998)" opacity="0.15">
              <path id="Trazado_139-2" data-name="Trazado 139" d="M1.3,9.118C-.015,8.7-.109,6.808.067,5.629A4.507,4.507,0,0,1,2.83,2.083c1.558-.63,3.21-.21,4.778-.645C9.317.962,10.716-.016,12.557,0c1.8.016,3.218.932,4.915,1.329,1.46.342,2.827-.641,4.217-.961,3.637-.836,8.109,1.1,8.93,5.163a6.579,6.579,0,0,1-1.785,5.935c-1.486,1.576-4.344,3.383-6.25,1.568a2.163,2.163,0,0,1-.313-2.5c.576-1.23,2.266-1.458,3.1-2.264a2.3,2.3,0,0,0,.784-1.085c-.1.287.037-.379,0-.077a1.256,1.256,0,0,0-.049-.581,2.714,2.714,0,0,0-1.62-1.592,4.731,4.731,0,0,0-3.234.019,9.354,9.354,0,0,1-4.044.539,27.822,27.822,0,0,1-3.735-1.238,5.009,5.009,0,0,0-3.364.466,9.987,9.987,0,0,1-3.853.7C5.133,5.405,4,5.256,3.173,6.11a2.907,2.907,0,0,0-.767,1.135,7.268,7.268,0,0,1-.388,1.571.642.642,0,0,1-.72.3Z" transform="translate(0 0)" fill="#336ec2"/>
            </g>
          </g>
        </g>
        <g id="Grupo_41-2" data-name="Grupo 41" transform="translate(-10.732 -3.04)">
          <path id="Trazado_141-2" data-name="Trazado 141" d="M.248.248,0,0" transform="translate(1.472 16.71)" fill="none" stroke="#336ec2" stroke-miterlimit="10" stroke-width="0.994" opacity="0.35"/>
          <path id="Trazado_142-2" data-name="Trazado 142" d="M0,0V.248" transform="translate(1.023 11.625)" fill="none" stroke="#336ec2" stroke-miterlimit="10" stroke-width="0.994" opacity="0.35"/>
          <path id="Trazado_143-2" data-name="Trazado 143" d="M0,0V.249" transform="translate(1.989 12.532)" fill="none" stroke="#336ec2" stroke-miterlimit="10" stroke-width="0.994" opacity="0.35"/>
          <path id="Trazado_144-2" data-name="Trazado 144" d="M0,0" transform="translate(0 4.377)" fill="none" stroke="#336ec2" stroke-miterlimit="10" stroke-width="0.994" opacity="0.15"/>
          <path id="Trazado_145-2" data-name="Trazado 145" d="M0,0" transform="translate(3.165 3.232)" fill="none" stroke="#336ec2" stroke-miterlimit="10" stroke-width="0.994" opacity="0.35"/>
          <path id="Trazado_146-2" data-name="Trazado 146" d="M0,0" transform="translate(4.354 2.735)" fill="none" stroke="#336ec2" stroke-miterlimit="10" stroke-width="0.994" opacity="0.15"/>
          <path id="Trazado_147-2" data-name="Trazado 147" d="M0,0" transform="translate(1.586)" fill="none" stroke="#336ec2" stroke-miterlimit="10" stroke-width="0.994" opacity="0.15"/>
          <path id="Trazado_148-2" data-name="Trazado 148" d="M0,0" transform="translate(0 3.729)" fill="none" stroke="#336ec2" stroke-miterlimit="10" stroke-width="0.994" opacity="0.15"/>
          <path id="Trazado_149-2" data-name="Trazado 149" d="M0,0" transform="translate(4.354 1.492)" fill="none" stroke="#336ec2" stroke-miterlimit="10" stroke-width="0.994" opacity="0.35"/>
        </g>
      </g>
    </g>
    <g id="Grupo_1313" data-name="Grupo 1313" transform="translate(23 92)">
      <path id="Trazado_352" data-name="Trazado 352" d="M56.557-26.7c0,5.467.627,10.283-1.807,14.45s-9,6.119-13.1,8.452S36.267-2.5,31.2-2.5,21.55-1.465,17.45-3.8s-7.367-4.285-9.8-8.452A28.124,28.124,0,0,1,4-26.7,28.124,28.124,0,0,1,7.65-41.15a26.578,26.578,0,0,1,9.8-9.8A27,27,0,0,1,31.2-54.5a27,27,0,0,1,13.75,3.55,26.578,26.578,0,0,1,9.8,9.8,26.358,26.358,0,0,1,1.807,3.78C57.748-34.355,56.557-30.7,56.557-26.7Z" transform="translate(412 473)" fill="url(#linear-gradient)"/>
      <g id="Grupo_1312" data-name="Grupo 1312" transform="translate(412.993 414.052)">
        <path id="Trazado_107" data-name="Trazado 107" d="M401.94,308.008a68.018,68.018,0,0,1,17.989,1.324,6.332,6.332,0,0,1,2.766,1.08,2.124,2.124,0,0,1,.7,2.592,2.744,2.744,0,0,1-1.637,1.082c-2.275.691-4.738.292-7.114.5s-5.019,1.416-5.455,3.673c-.174.9.039,1.846-.155,2.744s-1.091,1.8-1.991,1.492c-1.316-.444-.819-2.536-1.843-3.445-.861-.764-2.366-.207-2.956.766a6.739,6.739,0,0,0-.6,3.293c-.081,1.971,1.233,5.244.194,6.944-1.355,2.216-2.981-.131-3.659-1.043-.88-1.186-1.9-.783-2.032.912a17.093,17.093,0,0,1-1.355,5.867,3.759,3.759,0,0,1-2.439,2.216c-1.664.269-2.822-2.126-3.271-3.691-1.676-5.855-1.916-12.348.865-17.8s9.1-9.471,15.323-8.44" transform="translate(-387.826 -307.887)" fill="#fff"/>
        <g id="Grupo_31" data-name="Grupo 31">
          <g id="Grupo_30" data-name="Grupo 30" clip-path="url(#clip-path-4)">
            <g id="Grupo_28" data-name="Grupo 28" transform="translate(-4.168 0.726)" opacity="0.3">
              <path id="Trazado_108" data-name="Trazado 108" d="M424.646,309.274c2.423.264,2.884,3.214,1.891,5-2.232,4.021-7.531,1.872-10.918,3.466-3.252,1.531-.583,6.139-4.029,7.646a3.737,3.737,0,0,1-3.721-.417c-.562-.42-1.65-3.031-2.034-3.093l1.72-.437c-3.424,3,2.3,8.815-1.617,11.675a4.072,4.072,0,0,1-4.686-.188,4.906,4.906,0,0,1-1.9-1.837l.6-.519a8.409,8.409,0,0,0-.189.843,13.1,13.1,0,0,1-.272,1.652c-.518,3.149-2.545,7.184-6.567,6.34-4.631-.973-6.79-7.542-6.731-11.422.022-1.474,1.97-1.535,2.5-.325a55.774,55.774,0,0,0,2.664,5.664c.411.707,1.154,2.239,1.911,2.5,1.151.4,1.873-.68,2.227-1.511.842-1.976.606-4.773,2.109-6.371a2.208,2.208,0,0,1,3.044-.371c.828.558,1.505,3.011,2.7,2.571.86-.317-.056-2.87-.158-3.6a12.189,12.189,0,0,1,.026-4.341c.478-2.052,2.3-4.75,4.756-3.2,1.155.73.7,2.241,1.689,2.838.8.487.824-1.391.93-2.175a5.851,5.851,0,0,1,4.727-5.106c2.677-.685,11.8.451,8.983-4.7a.4.4,0,0,1,.351-.588Z" transform="translate(-386.192 -309.272)" fill="#336ec2"/>
            </g>
            <g id="Grupo_29" data-name="Grupo 29" transform="translate(-11.984 -11.142)" opacity="0.15">
              <path id="Trazado_109" data-name="Trazado 109" d="M407.855,288.669c9.982-6.64,24.646,4.258,21.049,15.206-3.708,11.289-17.952,8.3-26.9,10.815.448-.126,3.345-.284,2.905-1.4-.095-.241-1.028,2.23-.384.318-2.628,7.8-2.665,17.766-12.844,19.954-9.42,2.025-15.087-6.1-17.037-13.821-1.5-5.938,2.981-19.443,9.669-9.748,2.043,2.961,2.711,12.5,5.056,12.34s2.155-6.874,2.99-9.614c2.9-9.509,9.345-9.236,18.157-10.1,8.027-.785,9.292-3.393,5.425-5.414-1.928-1.451-14.286-4.413-8.088-8.537Z" transform="translate(-374.357 -286.644)" fill="#336ec2"/>
            </g>
          </g>
        </g>
        <path id="Trazado_111" data-name="Trazado 111" d="M433.648,314.114l.09.087" transform="translate(-422.942 -310.848)" fill="none" stroke="#336ec2" stroke-miterlimit="10" stroke-width="0.994" opacity="0.35"/>
        <path id="Trazado_112" data-name="Trazado 112" d="M439.116,316.433" transform="translate(-431.301 -311.951)" fill="none" stroke="#336ec2" stroke-miterlimit="10" stroke-width="0.994" opacity="0.15"/>
        <path id="Trazado_113" data-name="Trazado 113" d="M436.962,319.085" transform="translate(-427.973 -313.211)" fill="none" stroke="#336ec2" stroke-miterlimit="10" stroke-width="0.994" opacity="0.35"/>
        <path id="Trazado_114" data-name="Trazado 114" d="M448.229,349.076" transform="translate(-445.382 -327.472)" fill="none" stroke="#336ec2" stroke-miterlimit="10" stroke-width="0.994" opacity="0.15"/>
        <path id="Trazado_115" data-name="Trazado 115" d="M451.212,341.785" transform="translate(-449.992 -324.005)" fill="none" stroke="#336ec2" stroke-miterlimit="10" stroke-width="0.994" opacity="0.35"/>
        <path id="Trazado_116" data-name="Trazado 116" d="M445.744,337.477" transform="translate(-441.543 -321.957)" fill="none" stroke="#336ec2" stroke-miterlimit="10" stroke-width="0.994" opacity="0.15"/>
        <path id="Trazado_117" data-name="Trazado 117" d="M402.828,312.457" transform="translate(-375.23 -310.06)" fill="none" stroke="#336ec2" stroke-miterlimit="10" stroke-width="0.994" opacity="0.35"/>
        <path id="Trazado_118" data-name="Trazado 118" d="M409.381,314.279h-.091" transform="translate(-385.305 -310.926)" fill="none" stroke="#336ec2" stroke-miterlimit="10" stroke-width="0.994" opacity="0.15"/>
        <path id="Trazado_119" data-name="Trazado 119" d="M414.924,310.468" transform="translate(-393.92 -309.114)" fill="none" stroke="#336ec2" stroke-miterlimit="10" stroke-width="0.994" opacity="0.35"/>
      </g>
      <g id="Enmascarar_grupo_2" data-name="Enmascarar grupo 2" transform="translate(-77.723 -7.204)" clip-path="url(#clip-path-5)">
        <path id="Trazado_353" data-name="Trazado 353" d="M-180.394-496.734s-3.3-18.381-1.886-20.324,12.934-1.255,12.934-1.255-4.227-13.01-2.706-14.772,14.774-3.459,15.993-3.292.521,7.068.521,7.068,9.488-1.98,11.677-.391-1.167,7.17-1.167,7.17l6.115-.8s-.092-9.439,1.67-12.582,7.048,0,7.048,0v39.178Z" transform="translate(680.337 979.734)" fill="#fff"/>
      </g>
    </g>
    <g id="Grupo_1316" data-name="Grupo 1316" transform="matrix(0.999, -0.035, 0.035, 0.999, -16.26, 326.255)">
      <path id="Trazado_70" data-name="Trazado 70" d="M359.036,216.6c-1.288.567-1.754,1.41-1.089,2.042a1.29,1.29,0,0,0,.753.283c.923.111,1.859-.038,2.785.036a2.831,2.831,0,0,1,2.351,1.266c.238.45.323,1.041.77,1.286,1.024.56,1.794-1.394,2.959-1.468.552-.035,1.023.37,1.542.562,1.845.683,3.035-1.278,4.593-.512.537.264,1.254,1.255,1.852,1.255.657,0,.97-.859,1.395-.986.8-.239,1.381.765,1.575,1.579s.137,2.1,1.033,2.1.712-2.926,1.894-3.354c.605-.219,1.279-.2,1.882-.422s1.146-.884.9-1.477c-.228-.54-.919-.658-1.474-.845-1.666-.561-2.64-2.227-3.7-3.627s-2.726-2.743-4.409-2.235c-1.3.394-2.124,1.79-3.438,2.153-1.874.518-3.757-1.283-5.669-.929a5.227,5.227,0,0,0-1.639.719C362.2,215.009,360.324,216.034,359.036,216.6Z" transform="translate(0 0)" fill="#fff"/>
      <g id="Grupo_19" data-name="Grupo 19" transform="translate(364.619 212.926)">
        <path id="Trazado_71" data-name="Trazado 71" d="M389.159,220.552h-.06" transform="translate(-387.964 -219.297)" fill="none" stroke="#336ec2" stroke-miterlimit="10" stroke-width="0.927" opacity="0.35"/>
        <path id="Trazado_72" data-name="Trazado 72" d="M386.086,223.162v-.06" transform="translate(-385.727 -221.19)" fill="none" stroke="#336ec2" stroke-miterlimit="10" stroke-width="0.927" opacity="0.35"/>
        <path id="Trazado_73" data-name="Trazado 73" d="M392.111,223.1" transform="translate(-390.199 -221.19)" fill="none" stroke="#336ec2" stroke-miterlimit="10" stroke-width="0.927" opacity="0.15"/>
        <path id="Trazado_74" data-name="Trazado 74" d="M426.7,215.685h-.059" transform="translate(-415.829 -215.685)" fill="none" stroke="#336ec2" stroke-miterlimit="10" stroke-width="0.927" opacity="0.35"/>
        <path id="Trazado_75" data-name="Trazado 75" d="M422.7,219.162" transform="translate(-412.905 -218.266)" fill="none" stroke="#336ec2" stroke-miterlimit="10" stroke-width="0.927" opacity="0.15"/>
        <path id="Trazado_76" data-name="Trazado 76" d="M431.973,219.222v-.06" transform="translate(-419.785 -218.266)" fill="none" stroke="#336ec2" stroke-miterlimit="10" stroke-width="0.927" opacity="0.35"/>
        <path id="Trazado_77" data-name="Trazado 77" d="M445.183,233.067" transform="translate(-429.59 -228.586)" fill="none" stroke="#336ec2" stroke-miterlimit="10" stroke-width="0.927" opacity="0.15"/>
        <path id="Trazado_78" data-name="Trazado 78" d="M443.1,238.4" transform="translate(-428.041 -232.542)" fill="none" stroke="#336ec2" stroke-miterlimit="10" stroke-width="0.927" opacity="0.35"/>
        <path id="Trazado_79" data-name="Trazado 79" d="M439.621,235.616" transform="translate(-425.461 -230.478)" fill="none" stroke="#336ec2" stroke-miterlimit="10" stroke-width="0.927" opacity="0.35"/>
        <path id="Trazado_80" data-name="Trazado 80" d="M400.223,235.385" transform="translate(-396.22 -230.306)" fill="none" stroke="#336ec2" stroke-miterlimit="10" stroke-width="0.927" opacity="0.15"/>
        <path id="Trazado_81" data-name="Trazado 81" d="M392.807,233.531" transform="translate(-390.716 -228.93)" fill="none" stroke="#336ec2" stroke-miterlimit="10" stroke-width="0.927" opacity="0.15"/>
        <path id="Trazado_82" data-name="Trazado 82" d="M384.7,234.226" transform="translate(-384.695 -229.446)" fill="none" stroke="#336ec2" stroke-miterlimit="10" stroke-width="0.927" opacity="0.35"/>
        <path id="Trazado_83" data-name="Trazado 83" d="M398.137,231.908" transform="translate(-394.672 -227.726)" fill="none" stroke="#336ec2" stroke-miterlimit="10" stroke-width="0.927" opacity="0.35"/>
        <path id="Trazado_84" data-name="Trazado 84" d="M422.008,233.994" transform="translate(-412.389 -229.274)" fill="none" stroke="#336ec2" stroke-miterlimit="10" stroke-width="0.927" opacity="0.15"/>
        <path id="Trazado_85" data-name="Trazado 85" d="M411.347,226.114" transform="translate(-404.476 -223.425)" fill="none" stroke="#336ec2" stroke-miterlimit="10" stroke-width="0.927" opacity="0.15"/>
      </g>
      <g id="Grupo_22" data-name="Grupo 22" transform="translate(357.646 211.967)">
        <g id="Grupo_21" data-name="Grupo 21" clip-path="url(#clip-path-6)">
          <g id="Grupo_20" data-name="Grupo 20" transform="translate(-0.8 4.182)" opacity="0.3">
            <path id="Trazado_86" data-name="Trazado 86" d="M354.97,228.4a2.042,2.042,0,0,0,.31,2.806c1.4,1.246,3.44.159,4.934.978,1.082.594,1.461,2.144,2.929,2.034.647-.048,1-.48,1.512-.8.929-.586,1.764.2,2.759.229a5.38,5.38,0,0,0,2.1-.541,2.606,2.606,0,0,1,2.648.336,2.89,2.89,0,0,0,1.738.518,2.084,2.084,0,0,0,.771-.271c.52-.284.441-.239.708.356.467,1.041.976,2.8,2.539,2.37s.961-2.328,2.172-2.987,2.719-1.012,2.8-2.694c.059-1.192-.91-2.891-2.292-2.488a.556.556,0,0,0-.242.917c.457.519,1.38.98.937,1.841-.293.568-1.205.75-1.729.993a3.223,3.223,0,0,0-1.278.939c-.4.528-.254,1.282-.586,1.764-.491.712-.773-.624-.9-.949a4.9,4.9,0,0,0-.493-1.016,1.438,1.438,0,0,0-1.173-.749c-.791-.005-1.163.687-1.978.395a16.907,16.907,0,0,0-1.894-.941c-1.492-.344-2.733,1.048-4.162.737a6.039,6.039,0,0,0-2.044-.471c-.784.091-1.066.723-1.734.97-.729.27-1.114-.59-1.531-1.037a3.449,3.449,0,0,0-1.689-1.027c-1.138-.291-5.173.366-4.493-1.841a.384.384,0,0,0-.637-.371Z" transform="translate(-354.543 -228.188)" fill="#336ec2"/>
          </g>
          <path id="Trazado_87" data-name="Trazado 87" d="M382.814,220.2a4.624,4.624,0,0,0-2.838-3.828c-2.264-1.2-4.58,1.135-2.641,3.027.134.13.132-1.335.239-1.195.139.183-.46-1.13-.319,1.553.04.757,1.569,1.168.637,1.434-.567.162-1.315.2-1.513,1.036-.177.742-1.1.67-1.992-.2a3.479,3.479,0,0,0-2.671-.817c-.833.007-1.243.353-1.693.117a4.6,4.6,0,0,0-2.248-.853,2.723,2.723,0,0,0-1.713.876c-.106.088-.684.685-1.314.478-.3-.1-.8-.513-1.123-.627a3.857,3.857,0,0,0-1.17-.243,4.477,4.477,0,0,0-1.24.182c-.059.015-.274.095-.449.168a.719.719,0,0,1-.679-.077,5.3,5.3,0,0,1-.562-.637,1.69,1.69,0,0,0-1.628-.717c-.48,0-1.474.359-2.071,0-.427-.256,1.163-.977.717-1.235a7.678,7.678,0,0,0-3.3-.053c-1.755,1.348-.768,3.745.974,4.571.906.429,1.85.147,2.741.427.684.215,1.177.963,1.824,1.3a3.824,3.824,0,0,0,2.764.254,2.237,2.237,0,0,1,.87-.184c.464.071.931.5,1.412.612a4.571,4.571,0,0,0,2.594-.22,12.078,12.078,0,0,1,1.212-.484l.1-.018a.5.5,0,0,1,.314.043c.084.041.166.085.246.135a4.592,4.592,0,0,0,1.717.52,1.89,1.89,0,0,0,.468-.05.484.484,0,0,1,.533.268,2.025,2.025,0,0,0,1.44,1.163c.68.115,1.336.225,1.987.268a.4.4,0,0,1,.065.01,3.9,3.9,0,0,0,2.861-.444l.034-.016a9.073,9.073,0,0,0,1.418-.722.466.466,0,0,1,.06-.031,7.767,7.767,0,0,0,1.474-.757,4.935,4.935,0,0,0,1.78-2.4c.047-.133.087-.266.122-.4A4.426,4.426,0,0,0,382.814,220.2Z" transform="translate(-353.693 -214.991)" fill="#336ec2" opacity="0.15"/>
        </g>
      </g>
    </g>
  </g>
</svg>
