<svg xmlns="http://www.w3.org/2000/svg" width="304.698" height="365.222" viewBox="0 0 304.698 365.222">
  <g id="Grupo_1340" data-name="Grupo 1340" transform="translate(670 1367)">
    <path id="wi-barometer" d="M7.69,158.125A152.6,152.6,0,0,1,52.407,50.389a158.237,158.237,0,0,1,48.669-32.446A147.14,147.14,0,0,1,160.143,5.88a148.855,148.855,0,0,1,59.276,12.063,150.172,150.172,0,0,1,80.906,80.906,147.407,147.407,0,0,1,12.063,59.276c0,33.694-9.983,63.643-29.95,90.266a150.733,150.733,0,0,1-77.163,54.284V371.1H117.09v-67.6a149.374,149.374,0,0,1-78.826-54.284Q7.69,208.978,7.69,158.125Zm33.486,0c0,32.238,11.647,59.9,35.15,82.986q34.63,34.942,83.61,34.942a115.775,115.775,0,0,0,59.484-15.807,119.818,119.818,0,0,0,43.469-43.053A115.213,115.213,0,0,0,278.9,157.917,119.421,119.421,0,0,0,244.169,74.1a118.476,118.476,0,0,0-38.061-25.374A118.749,118.749,0,0,0,76.325,74.1a119.842,119.842,0,0,0-25.374,37.853A111.639,111.639,0,0,0,41.176,158.125Zm12.063,7.487V150.638H98.372v14.975Zm22.67-73.627L86.724,81.171l31.614,31.614-10.815,11.023Zm52.62,102.537a32.1,32.1,0,0,1,9.151-22.67,30.337,30.337,0,0,1,22.046-9.983l56.78-93.385,13.727,7.279L188.221,176.22c3.744,5.2,5.408,11.231,5.408,18.3a30.765,30.765,0,0,1-9.567,23.086,32.177,32.177,0,0,1-23.294,9.359,31.963,31.963,0,0,1-32.238-32.446Zm27.246-97.129V52.469h14.351V97.6H155.776ZM216.923,165.4V150.014h45.133V165.4Z" transform="translate(-677.69 -1372.88)" fill="#fff"/>
    <line id="Línea_19" data-name="Línea 19" x2="40" transform="translate(-621.5 -1214.5)" fill="none" stroke="#fb7356" stroke-linecap="round" stroke-width="14"/>
    <line id="Línea_20" data-name="Línea 20" x2="40" transform="translate(-594.742 -1284.642) rotate(45)" fill="none" stroke="#fb7356" stroke-linecap="round" stroke-width="14"/>
    <line id="Línea_21" data-name="Línea 21" x2="40" transform="translate(-514.6 -1317.858) rotate(90)" fill="none" stroke="#fb7356" stroke-linecap="round" stroke-width="14"/>
    <line id="Línea_22" data-name="Línea 22" x2="40" transform="translate(-458.6 -1215.5)" fill="none" stroke="#fb7356" stroke-linecap="round" stroke-width="14"/>
  </g>
</svg>
