<svg xmlns="http://www.w3.org/2000/svg" xmlns:xlink="http://www.w3.org/1999/xlink" width="123.193" height="114.376" viewBox="0 0 123.193 114.376">
  <defs>
    <filter id="Trazado_859" x="0" y="4.777" width="60.447" height="68.663" filterUnits="userSpaceOnUse">
      <feOffset dy="3" input="SourceAlpha"/>
      <feGaussianBlur stdDeviation="3" result="blur"/>
      <feFlood flood-opacity="0.161"/>
      <feComposite operator="in" in2="blur"/>
      <feComposite in="SourceGraphic"/>
    </filter>
  </defs>
  <g id="Grupo_1339" data-name="Grupo 1339" transform="translate(378.305 1462.801)">
    <path id="wi-smoke" d="M6.34,48.549a22.2,22.2,0,0,1,5.016-14.2A21.772,21.772,0,0,1,24.037,26.4a26.976,26.976,0,0,1,9.694-15.612,27.617,27.617,0,0,1,34.38-.169,27.012,27.012,0,0,1,9.75,15.161h1.522a22.252,22.252,0,0,1,16.232,6.651,21.836,21.836,0,0,1,6.707,16.063,22.215,22.215,0,0,1-2.085,9.581,23.061,23.061,0,0,1-5.805,7.721v.169a14.14,14.14,0,0,1-3.156,8.961,13.706,13.706,0,0,1-7.89,5.016A17.578,17.578,0,0,1,69.069,93.355a9.854,9.854,0,0,1-7.383,16.288,9.287,9.287,0,0,1-6.932-2.931,9.574,9.574,0,0,1-2.874-6.989,9.2,9.2,0,0,1,.564-3.213h-.564a12.125,12.125,0,0,1-12-12,10.922,10.922,0,0,1,1.691-6.031,14,14,0,0,1-6.312-7.045H28.039v-.056a22.694,22.694,0,0,1-15.386-7.158A21.745,21.745,0,0,1,6.34,48.549Z" transform="translate(-378.721 -1458.068)" fill="#fff"/>
    <path id="Sustracción_7" data-name="Sustracción 7" d="M28.03,111.533a10.732,10.732,0,0,1-2.686-.329,9.515,9.515,0,0,1-2.417-1,10.45,10.45,0,0,0,.785-4.057,10.212,10.212,0,0,0-2.574-6.768,18.317,18.317,0,0,0,9.757-4.792,18.25,18.25,0,0,0,5.447-9.464,14.556,14.556,0,0,0,8.38-5.331A15.793,15.793,0,0,0,47.229,75.3a15.053,15.053,0,0,0,.845-5.032v-.18a23.927,23.927,0,0,0,3.509-3.766,25.744,25.744,0,0,0,2.656-4.44A23.683,23.683,0,0,0,56.456,51.7a23.2,23.2,0,0,0-7.123-17.071,26.088,26.088,0,0,0-3.771-3.1A22.9,22.9,0,0,0,36.941,28a26.287,26.287,0,0,0-4.849-.439H30.476a31.394,31.394,0,0,0-1.551-4.682,28.529,28.529,0,0,0-2.235-4.25,28.221,28.221,0,0,0-2.931-3.812A30.476,30.476,0,0,0,20.12,11.45,29.408,29.408,0,0,0,11.6,6.733,29.026,29.026,0,0,0,2.043,5.16C1.357,5.16.67,5.182,0,5.224A28.694,28.694,0,0,1,7.913,1.306,29.744,29.744,0,0,1,16.776,0a29.027,29.027,0,0,1,9.555,1.572,29.409,29.409,0,0,1,8.523,4.717,30.471,30.471,0,0,1,3.638,3.368,28.22,28.22,0,0,1,2.931,3.812,28.532,28.532,0,0,1,2.235,4.25A31.4,31.4,0,0,1,45.21,22.4h1.616a26.289,26.289,0,0,1,4.849.439,22.9,22.9,0,0,1,8.62,3.528,26.086,26.086,0,0,1,3.771,3.1,23.206,23.206,0,0,1,7.123,17.071,23.687,23.687,0,0,1-2.215,10.183,25.736,25.736,0,0,1-2.656,4.44,23.945,23.945,0,0,1-3.509,3.766v.179a15.052,15.052,0,0,1-.846,5.032,15.8,15.8,0,0,1-2.507,4.492,14.555,14.555,0,0,1-8.38,5.331,18.674,18.674,0,0,1-15.2,14.256,10.216,10.216,0,0,1,2.574,6.769A10.464,10.464,0,0,1,37.682,105a10.872,10.872,0,0,1-2.29,3.422A10.105,10.105,0,0,1,28.03,111.533Z" transform="translate(-326.301 -1462.801)" fill="#fb7356"/>
    <g transform="matrix(1, 0, 0, 1, -378.3, -1462.8)" filter="url(#Trazado_859)">
      <path id="Trazado_859-2" data-name="Trazado 859" d="M-47.47-837.593c-11.186,2.744-17.047,7.619-21.07,19.539-.217.644-.783,1.886-.783,1.886s-20.256,4.055-15.39,24.41" transform="translate(96.5 850.79)" fill="none" stroke="#fff" stroke-linecap="round" stroke-width="4"/>
    </g>
  </g>
</svg>
