<svg xmlns="http://www.w3.org/2000/svg" width="87.895" height="84.507" viewBox="0 0 87.895 84.507">
  <g id="Grupo_1330" data-name="Grupo 1330" transform="translate(-341.669 -136.012)">
    <path id="Sustracción_3" data-name="Sustracción 3" d="M39.251,84.507a4.482,4.482,0,0,1-1.418-.228,4.491,4.491,0,0,0,0-8.521,4.49,4.49,0,1,1,1.418,8.75ZM65.879,73.343a4.484,4.484,0,0,1-1.418-.229,4.491,4.491,0,0,0,0-8.522,4.49,4.49,0,1,1,1.418,8.75Zm-26.489,0a4,4,0,0,1-1.434-.26,3.862,3.862,0,0,0,2.394-3.591V51.407l2.835,2.848V69.492a3.784,3.784,0,0,1-1.116,2.735A3.671,3.671,0,0,1,39.39,73.343Zm-26.768,0a4.484,4.484,0,0,1-1.418-.229,4.491,4.491,0,0,0,0-8.522,4.49,4.49,0,1,1,1.418,8.75Zm46.024-7.926a3.631,3.631,0,0,1-1.414-.281,3.69,3.69,0,0,0,2.319-3.627,3.562,3.562,0,0,0-1-2.623L45.765,46.1H48.6L61.382,58.887a3.562,3.562,0,0,1,1,2.623,4.039,4.039,0,0,1-1,2.735A3.816,3.816,0,0,1,58.647,65.417Zm-38.625-.056a3.711,3.711,0,0,1-1.418-.27,4,4,0,0,0,1.317-.9l12.67-12.67v2.835l-9.835,9.835A3.715,3.715,0,0,1,20.022,65.361ZM77.084,46.742a4.485,4.485,0,0,1-1.418-.228,4.491,4.491,0,0,0,0-8.522,4.49,4.49,0,1,1,1.418,8.75Zm-75.666,0A4.484,4.484,0,0,1,0,46.514a4.483,4.483,0,0,0,3.072-4.261A4.483,4.483,0,0,0,0,37.992,4.5,4.5,0,0,1,5.653,40.76,3.976,3.976,0,0,0,5.3,42.421,3.306,3.306,0,0,0,5.6,43.88a4.491,4.491,0,0,1-4.186,2.863ZM66.629,46.1H63.8a3.814,3.814,0,0,0,3.734-3.74,3.943,3.943,0,0,0-1.116-2.791A3.468,3.468,0,0,0,63.793,38.4h2.835a3.468,3.468,0,0,1,2.624,1.172,4.241,4.241,0,0,1,.776,1.144,4.509,4.509,0,0,0,.023,3.133,3.884,3.884,0,0,1-.8,1.137A3.654,3.654,0,0,1,66.629,46.1ZM48.6,38.4H45.765L58.491,25.676a3.563,3.563,0,0,0,1-2.623,3.69,3.69,0,0,0-2.308-3.622,3.53,3.53,0,0,1,1.4-.285,3.816,3.816,0,0,1,2.735,1.172,4.04,4.04,0,0,1,1,2.735,3.563,3.563,0,0,1-1,2.623L48.6,38.4Zm-8.305-5.247h0V15.127a3.94,3.94,0,0,0-1.116-2.791,3.644,3.644,0,0,0-1.288-.91,3.847,3.847,0,0,1,1.445-.262,3.528,3.528,0,0,1,2.679,1.172,3.94,3.94,0,0,1,1.116,2.791V30.307L40.3,33.155Zm-7.758-.112h0L19.866,20.373a4,4,0,0,0-1.317-.9,3.8,3.8,0,0,1,4.153.9l9.835,9.835v2.834Zm33.343-12.9a4.484,4.484,0,0,1-1.418-.228,4.491,4.491,0,0,0,0-8.522,4.49,4.49,0,1,1,1.418,8.75Zm-53.257,0a4.484,4.484,0,0,1-1.418-.228,4.491,4.491,0,0,0,0-8.522,4.49,4.49,0,1,1,1.418,8.75ZM39.251,8.978a4.484,4.484,0,0,1-1.418-.228,4.491,4.491,0,0,0,0-8.522,4.49,4.49,0,1,1,1.418,8.75Z" transform="translate(347.992 136.012)" fill="#fb7356"/>
    <g id="Grupo_1327" data-name="Grupo 1327" transform="translate(341.669 136.012)">
      <path id="wi-snowflake-cold" d="M30.847,61.258a4.02,4.02,0,0,1,1.116-2.791,3.513,3.513,0,0,1,2.679-1.172H52.671L39.945,44.569a3.316,3.316,0,0,1-1.172-2.623,3.868,3.868,0,0,1,6.642-2.735l12.67,12.67V33.964a3.841,3.841,0,0,1,1.172-2.791A3.752,3.752,0,0,1,62.048,30a3.513,3.513,0,0,1,2.679,1.172,3.923,3.923,0,0,1,1.116,2.791V51.992L78.626,39.155A3.688,3.688,0,0,1,81.3,37.983a3.81,3.81,0,0,1,2.735,1.172,4.039,4.039,0,0,1,1,2.735,3.577,3.577,0,0,1-1,2.623L71.314,57.239H89.342a3.481,3.481,0,0,1,2.623,1.172A3.923,3.923,0,0,1,93.082,61.2a3.814,3.814,0,0,1-3.74,3.74H71.314L84.1,77.724a3.577,3.577,0,0,1,1,2.623,4.039,4.039,0,0,1-1,2.735,3.81,3.81,0,0,1-2.735,1.172,3.6,3.6,0,0,1-2.679-1.172L65.9,70.244V88.329a3.793,3.793,0,0,1-1.116,2.735A3.666,3.666,0,0,1,62.1,92.18a4.02,4.02,0,0,1-2.791-1.116,3.631,3.631,0,0,1-1.172-2.735V70.356l-12.67,12.67a3.908,3.908,0,0,1-6.642-2.735A3.4,3.4,0,0,1,40,77.668L52.839,64.886H34.754a3.666,3.666,0,0,1-2.679-1.116A2.858,2.858,0,0,1,30.847,61.258Z" transform="translate(-19.642 -18.837)" fill="#fff"/>
      <g id="Grupo_1325" data-name="Grupo 1325" transform="translate(0 0)">
        <circle id="Elipse_5" data-name="Elipse 5" cx="4.489" cy="4.489" r="4.489" transform="translate(37.833)" fill="#fff"/>
        <circle id="Elipse_6" data-name="Elipse 6" cx="4.489" cy="4.489" r="4.489" transform="translate(64.461 11.164)" fill="#fff"/>
        <circle id="Elipse_7" data-name="Elipse 7" cx="4.489" cy="4.489" r="4.489" transform="translate(75.666 37.764)" fill="#fff"/>
        <circle id="Elipse_8" data-name="Elipse 8" cx="4.489" cy="4.489" r="4.489" transform="translate(64.461 64.365)" fill="#fff"/>
        <circle id="Elipse_9" data-name="Elipse 9" cx="4.489" cy="4.489" r="4.489" transform="translate(37.833 75.528)" fill="#fff"/>
        <circle id="Elipse_10" data-name="Elipse 10" cx="4.489" cy="4.489" r="4.489" transform="translate(11.205 64.365)" fill="#fff"/>
        <circle id="Elipse_11" data-name="Elipse 11" cx="4.489" cy="4.489" r="4.489" transform="translate(0 37.764)" fill="#fff"/>
        <circle id="Elipse_12" data-name="Elipse 12" cx="4.489" cy="4.489" r="4.489" transform="translate(11.205 11.164)" fill="#fff"/>
      </g>
    </g>
  </g>
</svg>
