<svg xmlns="http://www.w3.org/2000/svg" xmlns:xlink="http://www.w3.org/1999/xlink" width="166.348" height="152.471" viewBox="0 0 166.348 152.471">
  <defs>
    <filter id="Trazado_853" x="0" y="19.203" width="76.603" height="81.867" filterUnits="userSpaceOnUse">
      <feOffset dy="3" input="SourceAlpha"/>
      <feGaussianBlur stdDeviation="3" result="blur"/>
      <feFlood flood-opacity="0.161"/>
      <feComposite operator="in" in2="blur"/>
      <feComposite in="SourceGraphic"/>
    </filter>
  </defs>
  <g id="Grupo_1334" data-name="Grupo 1334" transform="translate(-38.603 -317.457)">
    <g id="Grupo_1333" data-name="Grupo 1333" transform="translate(-148.155 245.189)">
      <g id="Grupo_1321" data-name="Grupo 1321" transform="translate(187.147 64.268)">
        <g id="Grupo_1320" data-name="Grupo 1320">
          <path id="Sustracción_1" data-name="Sustracción 1" d="M58.621,106.24l0,0c.633-.907,1.232-1.865,1.782-2.847a34.04,34.04,0,0,0,3.1-25.218,33.716,33.716,0,0,0-3.369-8,32.275,32.275,0,0,0-12.2-12.062A33.659,33.659,0,0,0,31.16,53.728H28.936a40.192,40.192,0,0,0-5.155-12.323,39.776,39.776,0,0,0-9-9.847A40.265,40.265,0,0,0,3.111,25.1,40.078,40.078,0,0,0-10.08,22.933,40.644,40.644,0,0,0-23.5,25.138a42.722,42.722,0,0,1,6.3-6.244,39.9,39.9,0,0,1,11.86-6.671A40.627,40.627,0,0,1,8.134,10a40.076,40.076,0,0,1,13.191,2.165A40.276,40.276,0,0,1,33,18.626a39.776,39.776,0,0,1,9,9.847A40.194,40.194,0,0,1,47.15,40.8h2.224a33.651,33.651,0,0,1,16.779,4.38,32.259,32.259,0,0,1,12.2,12.062,33.706,33.706,0,0,1,3.369,8,33.477,33.477,0,0,1-14.757,37.348,32.487,32.487,0,0,1-8.338,3.652ZM-51.127,54.907l0,0c.394-.553.811-1.106,1.241-1.644.27-.338.549-.674.828-1-.208.733-.4,1.5-.579,2.275-.495.111-1,.236-1.489.37Z" transform="translate(83.094 -2)" fill="#fb7356"/>
          <path id="wi-cloud" d="M4.61,71.338a32.177,32.177,0,0,1,7.278-20.687A32.08,32.08,0,0,1,30.351,38.994,39.714,39.714,0,0,1,44.569,16.285,39.278,39.278,0,0,1,69.906,7.39a40.082,40.082,0,0,1,39.016,30.795h2.224a33.521,33.521,0,0,1,16.779,4.38,32.247,32.247,0,0,1,12.2,12.062,32.716,32.716,0,0,1,4.515,16.711,33.32,33.32,0,0,1-15.9,28.639,32.672,32.672,0,0,1-16.24,4.852H36.955a32.821,32.821,0,0,1-22.911-10.31A32,32,0,0,1,4.61,71.338Z" transform="translate(-4.61 18.915)" fill="#fff"/>
        </g>
        <g transform="matrix(1, 0, 0, 1, -0.39, 8)" filter="url(#Trazado_853)">
          <path id="Trazado_853-2" data-name="Trazado 853" d="M-38.821-822.082s-24.221,4.148-29.344,26.223c-.277,1.192-1,3.492-1,3.492S-96.3-786.33-92.784-762.8" transform="translate(104.11 849.59)" fill="none" stroke="#fff" stroke-linecap="round" stroke-width="4"/>
        </g>
      </g>
    </g>
    <path id="wi-lightning" d="M7.96,69.363H9.29L32.761,34.634q.461-.921-.512-.921H22.561l10.2-18.592c.307-.614.068-.921-.682-.921h-13a1.239,1.239,0,0,0-.989.614L8.608,40.059c-.068.614.136.921.648.921h9.381Zm29-21.594h.921L55.686,21.6a.777.777,0,0,0,.136-.682c-.068-.171-.273-.239-.58-.239H48.079L55.515,6.933Q56.13,5.91,54.9,5.91H45.554a1.1,1.1,0,0,0-1.023.648l-7.1,18.695a.735.735,0,0,0,.034.716.759.759,0,0,0,.648.239h6.959Z" transform="translate(73.247 400.565)" fill="#fbab4a"/>
  </g>
</svg>
