<svg xmlns="http://www.w3.org/2000/svg" xmlns:xlink="http://www.w3.org/1999/xlink" width="111.833" height="99.358" viewBox="0 0 111.833 99.358">
  <defs>
    <filter id="wi-tornado" x="0" y="0" width="96.439" height="99.358" filterUnits="userSpaceOnUse">
      <feOffset dy="3" input="SourceAlpha"/>
      <feGaussianBlur stdDeviation="3" result="blur"/>
      <feFlood flood-opacity="0.161"/>
      <feComposite operator="in" in2="blur"/>
      <feComposite in="SourceGraphic"/>
    </filter>
  </defs>
  <g id="Grupo_1324" data-name="Grupo 1324" transform="translate(-27.463 -426.713)">
    <path id="wi-tornado-2" data-name="wi-tornado" d="M4.13,51.451c0,2.744,2.864,9.983,5.727,11.931,5.25,3.7,28.2,4.057,32.294,3.221,4.3-.915,11.176-6.2,13.88-8.193s4.1-4.3,4.1-7a6.788,6.788,0,0,0-.477-2.466q8.292-2.028,13.005-5.488c3.142-2.307,4.733-4.971,4.733-7.954a8.689,8.689,0,0,0-.358-2.386q13.661-4.832,13.642-13.045c0-3.5-1.989-6.6-5.926-9.306Q73.113,3.01,50.623,3.01a91.476,91.476,0,0,0-19.21,1.869C25.169,6.152,20.158,8.141,16.34,10.845s-5.727,5.807-5.727,9.267a9.219,9.219,0,0,0,1.909,5.648q-7.04,4-7.04,9.784c0,2.983,1.472,5.608,4.375,7.875C6.039,45.645,4.13,48.31,4.13,51.451Zm2.386,17.9c0,2.9,1.79,5.21,5.369,6.841s23.624,1.631,27.243,0,5.409-3.937,5.409-6.841A3.987,3.987,0,0,0,43.5,66.6c-.676-.756-32.612-3.739-33.487-3.221C7.67,65.014,6.516,66.962,6.516,69.349ZM9.232,80.06c0,2.506,1.432,4.454,4.3,5.807A24.791,24.791,0,0,0,24.147,87.9a25.619,25.619,0,0,0,10.818-2.028c2.9-1.352,4.375-3.3,4.375-5.807,0-.994.756-3.062,0-3.818s-24.618,0-26.488,0a3.292,3.292,0,0,0-2.545,1.114A3.924,3.924,0,0,0,9.232,80.06Z" transform="translate(28.281 427.939)" fill="#ff5aa4"/>
    <path id="Sustracción_2" data-name="Sustracción 2" d="M14.58,88.81A26.589,26.589,0,0,1,3.24,86.644,9.209,9.209,0,0,1,0,84.262c.461.017.948.026,1.448.026A27.447,27.447,0,0,0,13,82.122c3.1-1.444,4.672-3.53,4.672-6.2a8.061,8.061,0,0,1,.158-1.228c.188-1.073.4-2.29-.158-2.849a.428.428,0,0,0-.175-.079c3.8-1.726,5.726-4.176,5.726-7.282a4.269,4.269,0,0,0-1.1-2.931,1.777,1.777,0,0,0-.645-.208,30.492,30.492,0,0,0,7.074-3.623c2.409-1.554,4.692-3.246,6.2-4.366l.08-.059L35.5,52.8a11.905,11.905,0,0,0,3.271-3.451,7.823,7.823,0,0,0,1.1-4.024,7.3,7.3,0,0,0-.51-2.633c5.875-1.437,10.548-3.409,13.888-5.861s5.054-5.32,5.054-8.495a9.317,9.317,0,0,0-.382-2.548c4.84-1.712,8.518-3.75,10.931-6.058a12.345,12.345,0,0,0,2.728-3.708,9.864,9.864,0,0,0,.908-4.166A9.711,9.711,0,0,0,70.9,6.571a16.8,16.8,0,0,0-4.741-4.651A35.951,35.951,0,0,0,62.915,0a56.422,56.422,0,0,1,9,2.642,39.154,39.154,0,0,1,7.379,3.8,16.8,16.8,0,0,1,4.741,4.651,9.712,9.712,0,0,1,1.587,5.288,9.863,9.863,0,0,1-.908,4.166,12.343,12.343,0,0,1-2.728,3.707C79.574,26.562,75.9,28.6,71.056,30.312a9.33,9.33,0,0,1,.382,2.549c0,3.174-1.7,6.032-5.054,8.494S58.372,45.779,52.5,47.216a7.206,7.206,0,0,1,.51,2.634,7.822,7.822,0,0,1-1.1,4.024,11.909,11.909,0,0,1-3.271,3.451l-.736.545,0,0c-1.511,1.12-3.794,2.812-6.2,4.368a30.505,30.505,0,0,1-7.078,3.626,1.781,1.781,0,0,1,.645.208,4.266,4.266,0,0,1,1.1,2.93c0,3.106-1.927,5.557-5.726,7.283a.422.422,0,0,1,.175.079c.559.559.346,1.775.158,2.848a8.064,8.064,0,0,0-.158,1.229c0,2.671-1.572,4.757-4.672,6.2A27.438,27.438,0,0,1,14.58,88.81Z" transform="translate(53.672 436.4)" fill="#fff"/>
    <g transform="matrix(1, 0, 0, 1, 27.46, 426.71)" filter="url(#wi-tornado)">
      <path id="wi-tornado-3" data-name="wi-tornado" d="M4.13,46.915q0,3.731,3.893,6.38,7.137,5.029,21.556,5.011a60.223,60.223,0,0,0,12.04-1.117,24.719,24.719,0,0,0,9.552-3.965c2.451-1.8,3.713-3.893,3.713-6.344a6.152,6.152,0,0,0-.433-2.235A33.31,33.31,0,0,0,66.239,39.67c2.848-2.091,4.29-4.506,4.29-7.209A7.875,7.875,0,0,0,70.2,30.3q12.382-4.38,12.364-11.823c0-3.172-1.8-5.984-5.371-8.435Q66.654,3.01,46.269,3.01A82.911,82.911,0,0,0,28.858,4.7,35.853,35.853,0,0,0,15.2,10.111c-3.461,2.451-5.191,5.263-5.191,8.4a8.356,8.356,0,0,0,1.73,5.119q-6.38,3.623-6.38,8.868c0,2.7,1.334,5.083,3.965,7.137C5.86,41.653,4.13,44.068,4.13,46.915ZM6.293,63.137c0,2.631,1.622,4.722,4.866,6.2a29.735,29.735,0,0,0,12.292,2.235,30.158,30.158,0,0,0,12.4-2.235c3.28-1.478,4.9-3.569,4.9-6.2a3.614,3.614,0,0,0-.937-2.487A3.106,3.106,0,0,0,37.4,59.64a3.317,3.317,0,0,0-2.163.829,3.688,3.688,0,0,0-1.226,2.055,10.741,10.741,0,0,1-3.965,1.55,28.216,28.216,0,0,1-6.6.721A23.569,23.569,0,0,1,13.791,63.1a3.313,3.313,0,0,0,.937-2.163,3.514,3.514,0,0,0-.541-2.235,3.614,3.614,0,0,0-2.2-1.442,3.462,3.462,0,0,0-2.523.469A6.4,6.4,0,0,0,6.293,63.137Zm4.614-16.221a3.843,3.843,0,0,1,.685-.649,8.843,8.843,0,0,1,2.019-1.226,20.392,20.392,0,0,1,3.461-1.262l.433-.216a64.7,64.7,0,0,0,20.439,2.92,66.308,66.308,0,0,0,9.3-.577l.937.829a5.714,5.714,0,0,1-2.271,1.8,25.225,25.225,0,0,1-6.7,2.055,51.329,51.329,0,0,1-9.625.9,48.481,48.481,0,0,1-9.625-.9,27.894,27.894,0,0,1-6.777-2.055A4.263,4.263,0,0,1,10.907,46.915ZM6.832,77.267c0,2.271,1.3,4.037,3.893,5.263a22.469,22.469,0,0,0,9.625,1.838,23.22,23.22,0,0,0,9.8-1.838c2.631-1.226,3.965-2.992,3.965-5.263a3.326,3.326,0,0,0-1.009-2.415,3.285,3.285,0,0,0-2.379-1.045,3.213,3.213,0,0,0-3.316,2.6c-1.406.865-3.749,1.334-7.065,1.334A15.065,15.065,0,0,1,13.429,76.4a3.238,3.238,0,0,0-3.316-2.6,2.984,2.984,0,0,0-2.307,1.009A3.556,3.556,0,0,0,6.832,77.267ZM12.06,32.5a1.642,1.642,0,0,1,.541-1.009,12.74,12.74,0,0,1,5.119-3.172Q28.1,33.884,46.233,33.866a85.834,85.834,0,0,0,17.375-1.694V32.5A2.163,2.163,0,0,1,62.6,34.119c-1.478,1.3-4.218,2.523-8.255,3.713a58.643,58.643,0,0,1-16.437,1.947,58.741,58.741,0,0,1-16.474-1.947c-4.181-1.154-6.957-2.379-8.363-3.677A2.164,2.164,0,0,1,12.06,32.5ZM16.746,18.51a3.226,3.226,0,0,1,1.262-2.127c1.622-1.514,4.866-2.956,9.661-4.362A66.234,66.234,0,0,1,46.2,9.751a67.772,67.772,0,0,1,18.708,2.271c4.866,1.406,8.075,2.884,9.661,4.4a3.386,3.386,0,0,1,1.226,2.127,2.968,2.968,0,0,1-1.226,2.019C72.98,22.079,69.772,23.557,64.905,25A67.592,67.592,0,0,1,46.2,27.27,66.056,66.056,0,0,1,27.669,25c-4.83-1.442-8.075-2.92-9.661-4.47A3.045,3.045,0,0,1,16.746,18.51Z" transform="translate(4.87 2.99)" fill="#ff5aa4"/>
    </g>
  </g>
</svg>
